<svg width="48" height="48" viewBox="0 0 48 48" fill="none" xmlns="http://www.w3.org/2000/svg">
<rect width="48" height="48" rx="24" fill="#F7F3F0"/>
<path fill-rule="evenodd" clip-rule="evenodd" d="M23.7142 13.0889C23.9039 13.0615 24.0966 13.0615 24.2863 13.0889C24.5049 13.1205 24.7084 13.1974 24.8699 13.2584L24.9132 13.2747L30.4056 15.3342C31.0234 15.5649 31.566 15.7674 31.9838 16.1357C32.3493 16.4578 32.6309 16.8641 32.8041 17.3194C33.0022 17.8399 33.0014 18.419 33.0004 19.0785L33.0003 24.0004C33.0003 26.827 31.463 29.1836 29.8012 30.9148C28.1283 32.6576 26.2143 33.8885 25.2022 34.479L25.1612 34.503C24.9765 34.6115 24.7368 34.7522 24.4196 34.8202C24.1602 34.8759 23.8404 34.8759 23.5809 34.8202C23.2638 34.7522 23.0241 34.6115 22.8394 34.503L22.7984 34.479C21.7863 33.8885 19.8722 32.6576 18.1993 30.9148C16.5376 29.1836 15.0003 26.827 15.0003 24.0004L15.0001 19.0785C14.9992 18.419 14.9983 17.8399 15.1964 17.3194C15.3697 16.8641 15.6512 16.4578 16.0168 16.1357C16.4346 15.7674 16.9771 15.5649 17.5949 15.3342L23.0873 13.2747L23.1306 13.2584C23.2922 13.1974 23.4956 13.1205 23.7142 13.0889ZM28.2074 21.7076C28.5979 21.3171 28.5979 20.6839 28.2074 20.2934C27.8168 19.9029 27.1837 19.9029 26.7931 20.2934L23.0002 24.0863L21.7074 22.7934C21.3168 22.4029 20.6837 22.4029 20.2931 22.7934C19.9026 23.1839 19.9026 23.8171 20.2931 24.2076L22.2931 26.2076C22.6837 26.5981 23.3168 26.5981 23.7074 26.2076L28.2074 21.7076Z" fill="#C6AF87"/>
</svg>
